Patient4_TMGait_0pt7_01_right_37_EMG.mot
version=1
nRows=19
nColumns=33
inDegrees=no
endheader
time	1LAddLong	2LGlutMax	3LGlutMed	4LIliopsoas	5LSemiMemb	6LBicFemLong	7LRecFem	8LVastMed	9LVastLat	10LGasMed	11LTibAnt	12lTibPost	13LPeroneusLong	14LSol	15LExtDigLong	16LFlexDigLong	17RAddLong	18RGlutMax	19RGlutMed	20RIliopsoas	21RSemiMemb	22RBicFemLong	23RRecFem	24RVastMed	25RVastLat	26RGasMed	27RTibAnt	28RTibPost	29RPeroneusLong	30RSol	31RExtDigLong	32RFlexDigLong
43.455	0.009766	-0.056458	-0.23483	-0.003967	0.023041	-0.011139	0.028534	0.001831	0.062103	-0.002136	0.012817	0.016937	-0.04776	-0.34836	-0.10284	0.006104	-0.014801	-0.094299	0.17471	0.059357	-0.15213	0.08606	0.091248	-0.031891	0.003967	-0.011292	0.053711	-0.005188	-0.16144	-0.054321	0.001221	-0.002289
43.456	-0.001984	-0.04425	-0.089264	-0.014038	0.039063	-0.026855	-0.003662	0.007019	0.050354	0.018005	0.023193	0.012207	-0.013733	-0.23438	-0.088959	-0.011292	-0.019226	-0.11429	0.066071	-0.030212	0.08667	0.031738	0.072021	-0.047607	0.021362	-0.014954	0.071106	-0.003357	-0.55008	-0.086517	0.001984	0.006104
43.457	0.003815	0.004883	0.058899	-0.024109	0.041199	-0.001373	0.019684	0.006409	0.050507	0.00885	0.02243	0.004883	0.03006	-0.14618	-0.000916	0.010223	-0.013275	-0.073547	-0.061951	-0.096893	0.098572	-0.016785	0.090942	-0.06485	0.024414	-0.005951	0.12344	-0.009308	-0.43503	-0.053711	0.003204	-0.003052
43.458	0.009003	-0.018463	0.088196	-0.018921	0.03479	0.039215	0.067749	0.003357	0.055847	0.005035	0.017242	0.01297	0.029602	0.017242	0.051422	-0.011139	-0.009918	-0.10117	-0.090637	-0.097961	0.027161	-0.015106	0.056763	-0.05722	0.01709	-0.007324	0.17853	-0.008392	-0.1683	-0.024109	-0.000458	-0.002136
43.459	0.005341	-0.02121	0.13519	0.003662	0.009308	0.078888	0.044098	0.006256	0.059357	-0.002289	0.020294	0.005341	0.001068	0.18631	0.047913	0.002747	0.005951	-0.053558	-0.30502	-0.043488	-0.000458	0.056152	0.007477	-0.049591	0.016632	-0.006104	0.18967	-0.010223	-0.18326	0.016479	-0.001526	-0.002747
43.46	-0.000763	0.011139	0.10681	-0.006409	0.028381	0.076904	0.048523	0.00946	0.06546	0.000916	0.010681	0.00412	-0.028534	0.23712	0.023346	-0.01236	0.001678	-0.019226	-0.4155	0.026398	-0.012207	0.103	0.024414	-0.084229	0.000763	-0.002289	0.22049	-0.008545	-0.33905	0.017242	-0.003967	-0.000305
43.461	-0.001678	0.015564	-0.11505	-0.014496	0.024109	0.003052	0.062103	0.010529	0.062714	-0.012207	0.011902	0.006866	-0.0354	0.27008	0.02243	-0.000458	-0.007782	-0.055237	-0.6012	0.027161	-0.018158	0.14069	-0.055695	-0.075226	0.033417	-0.013275	0.17441	-0.007324	-0.30472	-0.010681	-0.000916	-0.006104
43.462	-0.001984	-0.040741	-0.15579	-0.007172	-0.014801	-0.066071	0.067902	0.002747	0.067902	-0.058899	0.016632	0.003815	-0.040588	0.25299	0.036469	0.000458	-0.007324	-0.027771	-0.50354	-0.020447	-0.02594	0.067291	-0.054626	-0.099335	0.045166	-0.005798	-0.18555	-0.011444	0.13565	-0.078278	0.000458	0.007172
43.463	-0.012207	-0.021515	0.042267	0.004883	-0.008698	-0.15411	0.094604	0.00946	0.050049	-0.10284	0.012512	0.006104	0.11673	0.12085	0.062256	0.000763	0.004425	0.056305	-0.34744	-0.045776	-0.009918	0.000916	-0.011139	-0.095673	0.031738	-0.007935	-0.17792	-0.007172	0.67917	-0.030518	-0.006409	-0.001373
43.464	0.005341	0.039978	0.12375	0.005341	0.015411	-0.17914	0.11444	-0.00885	0.047913	-0.17105	0.010986	0.011749	0.14435	0.060883	0.05127	-0.008087	0.019531	0.013885	0.18234	-0.04776	-0.020905	-0.014801	0.011902	-0.080872	0.037384	-0.009155	-0.054321	-0.009613	0.5629	-0.016174	-0.002136	0.002289
43.465	0.010376	0.022125	0.075836	0.01236	0.001984	-0.09903	0.077362	0.034943	0.059509	-0.23804	0.014038	0.002594	0.17136	0.064087	0.031433	-0.002899	0.029449	-0.000763	-0.020599	-0.035706	-0.031281	-0.048218	0.033569	-0.059814	0.034485	0.000305	-0.18204	-0.005798	0.22003	-0.015106	-0.000763	-0.001526
43.466	0.018616	-0.037384	0.024719	0.031281	0.019073	-0.050964	0.072632	-0.000458	0.064087	-0.17075	0.016632	0.012512	-0.060272	0.11185	0.034027	0.007019	0.04303	-0.084076	-0.15533	-0.028687	0.022278	-0.078735	0.070496	-0.046234	0.028992	0.001068	-0.049438	-0.006256	0.059204	-0.027466	0	0.002289
43.467	0.016479	-0.079651	-0.002289	0.03067	0.032501	-0.081787	0.1265	0.017395	0.041809	-0.10666	0.032959	0.00351	-0.17624	0.15961	0.048523	0.004425	0.060883	-0.23056	-0.08667	-0.043945	0.018311	-0.075378	0.093994	-0.083008	0.03006	-0.001373	-0.030823	-0.008545	0.017853	-0.044098	0.00824	-0.002899
43.468	0.010986	-0.073395	-0.027161	0.005493	-0.011902	-0.11124	0.17746	0.014801	0.025635	-0.039215	0.020142	0.008392	-0.20157	0.07843	0.006409	0.002289	0.042267	-0.25818	-0.21561	-0.043182	0.10407	-0.039063	0.017853	-0.10361	0.035248	-0.012512	-0.050507	-0.008545	0.027313	-0.028076	0.001373	-0.005493
43.469	0.007935	-0.04715	-0.029602	0.015106	0.052185	-0.040588	0.19424	0.007172	0.00824	0.032196	0.02121	0.002747	0.032654	0.10635	-0.009766	0.005493	0.019073	-0.1564	-0.33188	-0.091553	0.046844	-0.002899	0.011749	-0.11215	0.028229	-0.013123	-0.045776	-0.010376	0.13672	-0.029144	-0.001678	-0.00412
43.47	0.000305	-0.037384	-0.077667	-0.009003	0.045471	0.053101	0.21286	0.002899	-0.028534	0.091705	0.016174	0.006714	0.054932	0.059509	-0.042572	0.002594	0.017548	-0.10193	-0.39902	-0.1384	-0.11169	0.00946	0.018768	-0.077515	0.028839	-0.00946	-0.097198	-0.014496	0.27176	-0.054474	-0.001526	0.003357
43.471	-0.00412	-0.022278	-0.049133	0.010071	-0.03891	0.065002	0.22583	0.010529	-0.074615	0.15091	0.004578	-0.003357	-0.032654	-0.042114	-0.062714	-0.016937	0.01236	-0.091858	-0.3743	-0.067139	0.005951	0.052032	-0.024719	-0.002289	0.038605	-0.021667	0.091553	-0.009613	0.55039	-0.10223	-0.00061	-0.002136
43.472	-0.005798	0.032806	-0.071411	-0.008545	-0.11475	0.021515	0.12146	0.019073	-0.080566	0.1503	0.002136	0.008698	0.070953	-0.016785	0.002747	-0.073395	0.019989	-0.063629	-0.28503	-0.058594	0.016022	0.056	-0.009918	-0.052185	0.037384	-0.026855	0.41184	-0.00824	0.25711	-0.087585	-0.00061	-0.006256
43.473	0.001526	0.027466	-0.034637	-0.003357	-0.090332	-0.021667	0.037079	0.025177	-0.031738	0.19547	0.002594	0.003815	0.14023	0.081635	0.032043	0.11887	0.017242	-0.056763	-0.38238	-0.017853	-0.000458	-0.037689	-0.016785	-0.045319	0.036469	-0.032654	0.35568	-0.010376	0.28824	-0.083618	-0.001373	-0.002441
